<svg xmlns="http://www.w3.org/2000/svg" viewBox="0 0 172.91 29.76"><defs><style>.cls-1{fill:#fff;}.cls-2{fill:#040000;}</style></defs><title>资源 9</title><g id="图层_2" data-name="图层 2"><g id="图层_1-2" data-name="图层 1"><rect class="cls-1" width="172.91" height="29.76"/><path class="cls-2" d="M21.72,27.34,18.82,20H7.17l-2.9,7.31H.66l10.14-25h4.37l10.14,25Zm-8.78-22-4.71,12h9.52L13,5.32Z"/><path class="cls-2" d="M28.2,27.34v-25h7.9q2.39,0,2.72,0a7.61,7.61,0,0,1,4.89,2A6.23,6.23,0,0,1,45.47,9a5.06,5.06,0,0,1-1.42,3.41,6.25,6.25,0,0,1-3.84,2v0a7.94,7.94,0,0,1,4.56,1.85,5,5,0,0,1,1.8,4A6.72,6.72,0,0,1,44.67,25a7.64,7.64,0,0,1-5.22,2.27q-.37,0-1.91,0ZM31.69,13.2h5.4a5.55,5.55,0,0,0,3.6-1A3.79,3.79,0,0,0,42,9q0-3.88-4.89-3.88h-5.4Zm0,11.34h6.43a5.45,5.45,0,0,0,3.58-1.14,3.84,3.84,0,0,0,1.38-3.13,3.85,3.85,0,0,0-1.38-3.12A5.39,5.39,0,0,0,38.12,16H31.69Z"/><path class="cls-2" d="M52.69,5.55a13.2,13.2,0,0,1,9.89-3.8,13.2,13.2,0,0,1,9.88,3.8,12.79,12.79,0,0,1,3.71,9.29,12.79,12.79,0,0,1-3.71,9.29,13.19,13.19,0,0,1-9.88,3.8,13.19,13.19,0,0,1-9.89-3.8A12.79,12.79,0,0,1,49,14.84,12.79,12.79,0,0,1,52.69,5.55Zm2.5,16.54a9.4,9.4,0,0,0,7.39,3,9.41,9.41,0,0,0,7.39-3,10.51,10.51,0,0,0,2.72-7.25A10.51,10.51,0,0,0,70,7.6a9.41,9.41,0,0,0-7.39-3,9.4,9.4,0,0,0-7.39,3,10.51,10.51,0,0,0-2.72,7.25A10.5,10.5,0,0,0,55.19,22.09Z"/><path class="cls-2" d="M99.63,18.45a9.53,9.53,0,0,1-2.52,6.83q-2.52,2.66-7.37,2.66t-7.37-2.66a9.52,9.52,0,0,1-2.52-6.83V2.35h3.49v16.1A7.11,7.11,0,0,0,85,23.24a7,7,0,0,0,9.56,0,7.12,7.12,0,0,0,1.62-4.79V2.35h3.49Z"/><path class="cls-2" d="M122,2.35v2.8h-8V27.34h-3.49V5.15h-8V2.35Z"/></g></g></svg>