<svg xmlns="http://www.w3.org/2000/svg" viewBox="0 0 172.91 29.76"><defs><style>.cls-1{fill:#fff;}.cls-2{fill:#231815;}</style></defs><title>资源 7</title><g id="图层_2" data-name="图层 2"><g id="图层_1-2" data-name="图层 1"><rect class="cls-1" width="172.91" height="29.76"/><path class="cls-2" d="M22.7.7a27.25,27.25,0,0,1-2.71,6h6.19V8.88h-10v1.46a29.16,29.16,0,0,1-.42,4.31H27.93v2.17H17q2.23,6.29,11.67,9.77l-1.26,2.08Q17.5,24.54,15.07,17.44a16.61,16.61,0,0,1-2.29,4.65q-3.1,4.12-10,6.39l-1.17-2q6.92-2.29,9.62-6a14.33,14.33,0,0,0,1.71-3.69H2.14V14.65H13.47a22.93,22.93,0,0,0,.45-4.31V8.88H3.85V6.71H17.59a31.77,31.77,0,0,0,3-6.6ZM9.32.39a51,51,0,0,1,3.43,5.27l-2,1a36.45,36.45,0,0,0-3.46-5.3Z"/><path class="cls-2" d="M93.79,1.47h22.58V3.64h-9.83v8.43h11.94v2.23H106.54v11q0,3-3,3H98.81l-.45-2.14q3.07.12,4.39.12a1.4,1.4,0,0,0,1.59-1.58V14.31H91.89V12.07h12.45V3.64H93.79Z"/></g></g></svg>