<svg xmlns="http://www.w3.org/2000/svg" viewBox="0 0 172.91 29.76"><defs><style>.cls-1{fill:#fff;}.cls-2{fill:#040000;}</style></defs><title>资源 10</title><g id="图层_2" data-name="图层 2"><g id="图层_1-2" data-name="图层 1"><rect class="cls-1" width="172.91" height="29.76"/><path class="cls-2" d="M26.34,20.58a9.86,9.86,0,0,1-4,5.56,13,13,0,0,1-7.86,2.27q-6.25,0-9.81-3.71a12.81,12.81,0,0,1-3.56-9.24A12.81,12.81,0,0,1,4.69,6.23Q8.25,2.52,14.5,2.52q9,0,11.8,7.8H22.81a8.51,8.51,0,0,0-3-3.76A9.57,9.57,0,0,0,14.5,5.32,9.24,9.24,0,0,0,7.21,8.24a10.5,10.5,0,0,0-2.59,7.23A10.5,10.5,0,0,0,7.21,22.7a9.23,9.23,0,0,0,7.29,2.92q6.5,0,8.34-5Z"/><path class="cls-2" d="M32.44,6.18a13.2,13.2,0,0,1,9.89-3.8,13.2,13.2,0,0,1,9.89,3.8,12.79,12.79,0,0,1,3.71,9.29,12.79,12.79,0,0,1-3.71,9.29,13.19,13.19,0,0,1-9.89,3.8,13.19,13.19,0,0,1-9.89-3.8,12.79,12.79,0,0,1-3.71-9.29A12.79,12.79,0,0,1,32.44,6.18Zm2.5,16.54a9.4,9.4,0,0,0,7.39,3,9.41,9.41,0,0,0,7.39-3,10.51,10.51,0,0,0,2.72-7.25,10.52,10.52,0,0,0-2.72-7.25,9.41,9.41,0,0,0-7.39-3,9.4,9.4,0,0,0-7.39,3,10.51,10.51,0,0,0-2.72,7.25A10.51,10.51,0,0,0,34.94,22.72Z"/><path class="cls-2" d="M59.95,3h4.19L74.28,18.76l3,4.55V3h3.49V28h-4.3L66.38,12.29q-.52-.73-1.47-2.22T63.44,7.84V28H59.95Z"/><path class="cls-2" d="M103.36,3v2.8h-8V28H91.82V5.78h-8V3Z"/><path class="cls-2" d="M122.21,28l-2.9-7.31H107.66L104.76,28h-3.6L111.3,3h4.37l10.14,25ZM113.43,6l-4.7,12h9.52l-4.7-12Z"/><path class="cls-2" d="M151.56,20.58a9.85,9.85,0,0,1-4,5.56,13,13,0,0,1-7.86,2.27q-6.25,0-9.81-3.71a12.81,12.81,0,0,1-3.56-9.24,12.81,12.81,0,0,1,3.56-9.24q3.56-3.71,9.81-3.71,9,0,11.8,7.8H148A8.51,8.51,0,0,0,145,6.56a9.57,9.57,0,0,0-5.25-1.24,9.24,9.24,0,0,0-7.29,2.92,10.5,10.5,0,0,0-2.59,7.23,10.49,10.49,0,0,0,2.59,7.23,9.23,9.23,0,0,0,7.29,2.92q6.5,0,8.34-5Z"/><path class="cls-2" d="M172.38,3v2.8h-8V28h-3.49V5.78h-8V3Z"/></g></g></svg>