<svg xmlns="http://www.w3.org/2000/svg" viewBox="0 0 172.91 29.76"><defs><style>.cls-1{fill:#fff;}.cls-2{fill:#231815;}</style></defs><title>资源 8</title><g id="图层_2" data-name="图层 2"><g id="图层_1-2" data-name="图层 1"><rect class="cls-1" width="172.91" height="29.76"/><path class="cls-2" d="M1.38,1.66h12V3.74h-2v17l2-.68v2.17q-1.14.37-2,.62V29H9.32V23.45q-4.18,1.09-7.46,1.71L1.32,23l1.89-.31v-19H1.38ZM5.29,8.29h4V3.74h-4Zm0,6.45h4V10.31h-4Zm0,7.6q2.31-.53,4-1V16.79h-4ZM13.83,7.15h7.49A43.33,43.33,0,0,0,24.27.45l2,.77a39.54,39.54,0,0,1-2.77,5.92H28V9.25H21.8v.93a41.12,41.12,0,0,1-.24,4.4h6.92v2.14H22.25q1.08,5.12,6.68,10.42l-1.5,1.64q-5.17-5.3-6.49-10.48Q19.18,25.47,14,28.91l-1.29-1.77Q17.8,24,19.18,16.72h-5.8V14.59h6.1q.21-2,.24-3.91V9.25H13.83Zm3-6.51a39.47,39.47,0,0,1,2.8,4.84L18,6.62a37.24,37.24,0,0,0-2.83-4.9Z"/><path class="cls-2" d="M150.89,21.28a30.23,30.23,0,0,1-7.58,6.63L142,26.12a29.94,29.94,0,0,0,7.4-6.23Zm-.12,7.44-.48-2.2q1.8.15,3.1.15a1,1,0,0,0,1.11-1.15V17.93q-5.2.34-9.41.53l-.6-2a9.69,9.69,0,0,0,1.89-.4,43.58,43.58,0,0,0,8.3-5.21q-3.16.25-8.45.59l-.45-2a6.28,6.28,0,0,0,1.47-.4,20.28,20.28,0,0,0,5.32-4.59q-3.82.19-8.15.19l-.63-2a99.12,99.12,0,0,0,21.53-2l1.05,1.89a72.94,72.94,0,0,1-11.07,1.64,27.45,27.45,0,0,1-5.68,5.27q3.18-.16,7.31-.53,1.74-1.43,4.18-3.69l2,1a71.33,71.33,0,0,1-13.29,10q7.61-.43,12.6-1.05-1.44-1.92-2.35-3l1.62-1A65.43,65.43,0,0,1,167.37,19l-1.74,1.27q-.75-1.36-2-3.19-2.71.31-7,.68v8.31q0,2.63-2.56,2.63Zm10-9.05a50.69,50.69,0,0,1,7.61,6.82l-1.53,1.58a49.71,49.71,0,0,0-7.52-7Z"/></g></g></svg>